<svg width="75" height="60" viewBox="0 0 75 60" fill="none" xmlns="http://www.w3.org/2000/svg">
<path d="M65 0H0V50H65V0ZM60 45H5V5H60V45Z" fill="#007BFF"/>
<path d="M70 12.5V55H12.5V60H75V12.5H70Z" fill="#007BFF"/>
<path d="M32.5 37.2601C38.7031 37.2601 43.75 31.7699 43.75 25.0216C43.75 18.2734 38.7031 12.7832 32.5 12.7832C26.2969 12.7832 21.25 18.2732 21.25 25.0216C21.25 31.7701 26.2969 37.2601 32.5 37.2601ZM32.5 17.7832C35.9462 17.7832 38.75 21.0304 38.75 25.0216C38.75 29.0129 35.9462 32.2601 32.5 32.2601C29.0538 32.2601 26.25 29.0129 26.25 25.0216C26.25 21.0304 29.0538 17.7832 32.5 17.7832Z" fill="#007BFF"/>
<path d="M10 11.25H15V38.75H10V11.25Z" fill="#007BFF"/>
<path d="M50 11.25H55V38.75H50V11.25Z" fill="#007BFF"/>
</svg>
