<svg width="81" height="53" viewBox="0 0 81 53" fill="none" xmlns="http://www.w3.org/2000/svg">
<path d="M51.7857 0.75H51.5357V1V6.66667V6.91667H51.7857H69.7659L46.1429 30.6394L34.2076 18.6538L34.2076 18.6537C33.6317 18.0756 32.8505 17.7506 32.0357 17.7506C31.2209 17.7506 30.4397 18.0756 29.8638 18.6537L29.8638 18.6538L0.822852 47.8173L0.647189 47.9937L0.822852 48.1701L4.81235 52.1764L4.9895 52.3543L5.16665 52.1764L32.0357 25.194L43.971 37.1796L43.971 37.1796C44.5469 37.7578 45.3281 38.0827 46.1429 38.0827C46.9576 38.0827 47.7388 37.7578 48.3147 37.1796L48.3148 37.1796L74.1071 11.2784V29.3333V29.5833H74.3571H80H80.25V29.3333V1V0.75H80H51.7857Z" fill="#007BFF" stroke="#007BFF" stroke-width="0.5"/>
</svg>
