<svg width="72" height="69" viewBox="0 0 72 69" fill="none" xmlns="http://www.w3.org/2000/svg">
<path d="M66.3335 0.85H66.3333L5.66667 0.85L5.6665 0.85C4.39 0.85142 3.1659 1.35413 2.26283 2.2483C1.35971 3.14252 0.851435 4.35525 0.85 5.62052V5.62069L0.85 47.2069L0.85 47.2071C0.851435 48.4723 1.35971 49.6851 2.26283 50.5793C3.1659 51.4735 4.39 51.9762 5.6665 51.9776H5.66667H14.85V68V68.15H15H19.4664H19.5281L19.572 68.1066L35.8615 51.9776H66.3333H66.3335C67.61 51.9762 68.8341 51.4735 69.7372 50.5793C70.6403 49.6851 71.1486 48.4723 71.15 47.2071V47.2069V5.62069V5.62052C71.1486 4.35525 70.6403 3.14252 69.7372 2.2483C68.8341 1.35413 67.61 0.85142 66.3335 0.85ZM33.7614 47.1003L19.8167 60.9076V47.2069V47.0569H19.6667H5.81667V5.77069H66.1833V47.0569H33.8669H33.8052L33.7614 47.1003Z" fill="#007BFF" stroke="#007BFF" stroke-width="0.3"/>
</svg>
