<svg width="56" height="70" viewBox="0 0 56 70" fill="none" xmlns="http://www.w3.org/2000/svg">
<path d="M48.2365 0.489258C49.256 0.489258 50.2655 0.690067 51.2074 1.08022C52.1493 1.47037 53.0052 2.04223 53.7261 2.76314C54.447 3.48405 55.0189 4.33989 55.409 5.2818C55.7992 6.22371 56 7.23325 56 8.25277V61.752C56 62.7715 55.7992 63.781 55.409 64.723C55.0189 65.6649 54.447 66.5207 53.7261 67.2416C53.0052 67.9625 52.1493 68.5344 51.2074 68.9245C50.2655 69.3147 49.256 69.5155 48.2365 69.5155H8.5563C7.53678 69.5155 6.52724 69.3147 5.58533 68.9245C4.64342 68.5344 3.78758 67.9625 3.06667 67.2416C2.34576 66.5207 1.7739 65.6649 1.38375 64.723C0.993594 63.781 0.792786 62.7715 0.792786 61.752V8.25277C0.792544 6.28558 1.5391 4.39164 2.88158 2.95373C4.22406 1.51582 6.06235 0.641154 8.02493 0.50651L8.5563 0.489258H48.2365ZM50.8243 48.7956H5.96846V61.752C5.96846 63.1805 7.12781 64.3398 8.5563 64.3398H48.2365C48.9228 64.3398 49.581 64.0672 50.0663 63.5819C50.5517 63.0965 50.8243 62.4383 50.8243 61.752V48.7956ZM13.7354 53.9712H43.0608C43.7165 53.9714 44.3476 54.2205 44.8267 54.6681C45.3058 55.1157 45.5971 55.7285 45.6418 56.3827C45.6865 57.0368 45.4812 57.6835 45.0675 58.1922C44.6537 58.7008 44.0623 59.0334 43.4127 59.1227L43.0608 59.1469H13.7354C13.0801 59.1458 12.4495 58.8961 11.9711 58.4482C11.4926 58.0003 11.2019 57.3876 11.1577 56.7337C11.1135 56.0799 11.319 55.4335 11.7327 54.9253C12.1465 54.417 12.7377 54.0847 13.3869 53.9954L13.7354 53.9712H43.0608H13.7354ZM48.2365 5.66493H8.5563L8.20435 5.68909C7.58481 5.77413 7.01702 6.08064 6.60599 6.55194C6.19496 7.02323 5.96849 7.62742 5.96846 8.25277V43.6199H14.5946V35.8391C14.5946 33.6067 16.2922 31.771 18.466 31.5502L18.9076 31.5261H37.8851C40.1176 31.5261 41.9566 33.2237 42.174 35.4009L42.1982 35.8391V43.6199H50.8243V8.25277C50.8243 7.56643 50.5517 6.90821 50.0663 6.42289C49.581 5.93758 48.9228 5.66493 48.2365 5.66493ZM37.0225 36.7017H19.7703V43.6199H37.0225V36.7017ZM28.3964 10.8234C30.6842 10.8234 32.8783 11.7322 34.496 13.3499C36.1137 14.9676 37.0225 17.1617 37.0225 19.4495C37.0225 21.7373 36.1137 23.9314 34.496 25.5491C32.8783 27.1668 30.6842 28.0756 28.3964 28.0756C26.1086 28.0756 23.9145 27.1668 22.2968 25.5491C20.6791 23.9314 19.7703 21.7373 19.7703 19.4495C19.7703 17.1617 20.6791 14.9676 22.2968 13.3499C23.9145 11.7322 26.1086 10.8234 28.3964 10.8234ZM28.3964 15.999C27.4813 15.999 26.6036 16.3626 25.9565 17.0096C25.3095 17.6567 24.9459 18.5344 24.9459 19.4495C24.9459 20.3646 25.3095 21.2422 25.9565 21.8893C26.6036 22.5364 27.4813 22.8999 28.3964 22.8999C29.3115 22.8999 30.1891 22.5364 30.8362 21.8893C31.4833 21.2422 31.8468 20.3646 31.8468 19.4495C31.8468 18.5344 31.4833 17.6567 30.8362 17.0096C30.1891 16.3626 29.3115 15.999 28.3964 15.999Z" fill="#007BFF"/>
</svg>
