<svg width="81" height="69" viewBox="0 0 81 69" fill="none" xmlns="http://www.w3.org/2000/svg">
<path d="M28.7616 11.4885C28.7616 8.44156 29.972 5.51942 32.1265 3.3649C34.281 1.21039 37.2032 0 40.2501 0C43.297 0 46.2192 1.21039 48.3737 3.3649C50.5282 5.51942 51.7386 8.44156 51.7386 11.4885C51.7386 14.5354 50.5282 17.4576 48.3737 19.6121C46.2192 21.7666 43.297 22.977 40.2501 22.977C37.2032 22.977 34.281 21.7666 32.1265 19.6121C29.972 17.4576 28.7616 14.5354 28.7616 11.4885ZM40.2501 5.75C39.4965 5.75 38.7503 5.89843 38.0541 6.18682C37.3578 6.4752 36.7252 6.8979 36.1924 7.43077C35.6595 7.96364 35.2368 8.59625 34.9484 9.29247C34.66 9.9887 34.5116 10.7349 34.5116 11.4885C34.5116 12.2421 34.66 12.9883 34.9484 13.6845C35.2368 14.3808 35.6595 15.0134 36.1924 15.5462C36.7252 16.0791 37.3578 16.5018 38.0541 16.7902C38.7503 17.0786 39.4965 17.227 40.2501 17.227C41.772 17.227 43.2317 16.6224 44.3078 15.5462C45.384 14.4701 45.9886 13.0104 45.9886 11.4885C45.9886 9.96656 45.384 8.50695 44.3078 7.43077C43.2317 6.35459 41.772 5.75 40.2501 5.75Z" fill="#007BFF"/>
<path d="M57.5 14.3633C57.5 13.2306 57.7231 12.1091 58.1565 11.0626C58.59 10.0162 59.2253 9.06539 60.0262 8.26449C60.8271 7.46358 61.7779 6.82827 62.8244 6.39482C63.8708 5.96137 64.9923 5.73828 66.125 5.73828C67.2577 5.73828 68.3792 5.96137 69.4256 6.39482C70.4721 6.82827 71.4229 7.46358 72.2238 8.26449C73.0247 9.06539 73.66 10.0162 74.0935 11.0626C74.5269 12.1091 74.75 13.2306 74.75 14.3633C74.75 16.6508 73.8413 18.8446 72.2238 20.4621C70.6063 22.0796 68.4125 22.9883 66.125 22.9883C63.8375 22.9883 61.6437 22.0796 60.0262 20.4621C58.4087 18.8446 57.5 16.6508 57.5 14.3633ZM66.125 11.4883C65.3625 11.4883 64.6312 11.7912 64.0921 12.3303C63.5529 12.8695 63.25 13.6008 63.25 14.3633C63.25 15.1258 63.5529 15.857 64.0921 16.3962C64.6312 16.9354 65.3625 17.2383 66.125 17.2383C66.8875 17.2383 67.6188 16.9354 68.1579 16.3962C68.6971 15.857 69 15.1258 69 14.3633C69 13.6008 68.6971 12.8695 68.1579 12.3303C67.6188 11.7912 66.8875 11.4883 66.125 11.4883Z" fill="#007BFF"/>
<path d="M14.375 5.73828C12.0875 5.73828 9.89371 6.64698 8.2762 8.26449C6.6587 9.88199 5.75 12.0758 5.75 14.3633C5.75 16.6508 6.6587 18.8446 8.2762 20.4621C9.89371 22.0796 12.0875 22.9883 14.375 22.9883C16.6625 22.9883 18.8563 22.0796 20.4738 20.4621C22.0913 18.8446 23 16.6508 23 14.3633C23 12.0758 22.0913 9.88199 20.4738 8.26449C18.8563 6.64698 16.6625 5.73828 14.375 5.73828ZM11.5 14.3633C11.5 13.6008 11.8029 12.8695 12.3421 12.3303C12.8812 11.7912 13.6125 11.4883 14.375 11.4883C15.1375 11.4883 15.8688 11.7912 16.4079 12.3303C16.9471 12.8695 17.25 13.6008 17.25 14.3633C17.25 15.1258 16.9471 15.857 16.4079 16.3962C15.8688 16.9354 15.1375 17.2383 14.375 17.2383C13.6125 17.2383 12.8812 16.9354 12.3421 16.3962C11.8029 15.857 11.5 15.1258 11.5 14.3633Z" fill="#007BFF"/>
<path d="M18.791 28.7383C17.779 30.4854 17.2474 32.4692 17.25 34.4883H5.75V48.8633C5.74954 50.2935 6.10475 51.7014 6.78366 52.9603C7.46258 54.2191 8.44388 55.2893 9.63923 56.0746C10.8346 56.8599 12.2065 57.3357 13.6314 57.459C15.0563 57.5823 16.4895 57.3493 17.802 56.781C18.2275 58.6843 18.8945 60.5013 19.757 62.1975C17.5747 63.0787 15.2094 63.4105 12.8688 63.1639C10.5283 62.9173 8.28407 62.0999 6.33329 60.7832C4.38251 59.4666 2.78484 57.6912 1.68057 55.6128C0.5763 53.5345 -0.000782275 51.2168 7.95876e-07 48.8633V34.4883C7.95876e-07 32.9633 0.605802 31.5008 1.68414 30.4224C2.76247 29.3441 4.22501 28.7383 5.75 28.7383H18.791Z" fill="#007BFF"/>
<path d="M60.743 62.1975C62.9253 63.0787 65.2906 63.4105 67.6312 63.1639C69.9717 62.9173 72.2159 62.0999 74.1667 60.7832C76.1175 59.4666 77.7151 57.6912 78.8194 55.6128C79.9237 53.5345 80.5008 51.2168 80.5 48.8633V34.4883C80.5 32.9633 79.8942 31.5008 78.8158 30.4224C77.7375 29.3441 76.275 28.7383 74.75 28.7383H61.709C62.6865 30.4288 63.25 32.3895 63.25 34.4883H74.75V48.8633C74.7504 50.2935 74.3952 51.7014 73.7163 52.9603C73.0374 54.2191 72.0561 55.2893 70.8607 56.0746C69.6654 56.8599 68.2935 57.3357 66.8686 57.459C65.4437 57.5823 64.0105 57.3493 62.698 56.781C62.2667 58.6843 61.6055 60.5013 60.743 62.1975Z" fill="#007BFF"/>
<path d="M28.75 28.7383C27.225 28.7383 25.7625 29.3441 24.6841 30.4224C23.6058 31.5008 23 32.9633 23 34.4883V51.7383C23 56.3133 24.8174 60.7009 28.0524 63.9359C31.2874 67.1709 35.675 68.9883 40.25 68.9883C44.825 68.9883 49.2126 67.1709 52.4476 63.9359C55.6826 60.7009 57.5 56.3133 57.5 51.7383V34.4883C57.5 32.9633 56.8942 31.5008 55.8159 30.4224C54.7375 29.3441 53.275 28.7383 51.75 28.7383H28.75ZM28.75 34.4883H51.75V51.7383C51.75 54.7883 50.5384 57.7133 48.3817 59.87C46.2251 62.0267 43.3 63.2383 40.25 63.2383C37.2 63.2383 34.2749 62.0267 32.1183 59.87C29.9616 57.7133 28.75 54.7883 28.75 51.7383V34.4883Z" fill="#007BFF"/>
</svg>
