<svg width="53" height="53" viewBox="0 0 53 53" fill="none" xmlns="http://www.w3.org/2000/svg">
<path d="M50.88 4.77H39.75V0.53C39.75 0.2385 39.5115 0 39.22 0H35.51C35.2185 0 34.98 0.2385 34.98 0.53V4.77H18.02V0.53C18.02 0.2385 17.7815 0 17.49 0H13.78C13.4885 0 13.25 0.2385 13.25 0.53V4.77H2.12C0.947375 4.77 0 5.71737 0 6.89V50.88C0 52.0526 0.947375 53 2.12 53H50.88C52.0526 53 53 52.0526 53 50.88V6.89C53 5.71737 52.0526 4.77 50.88 4.77ZM48.23 48.23H4.77V23.055H48.23V48.23ZM4.77 18.55V9.54H13.25V12.72C13.25 13.0115 13.4885 13.25 13.78 13.25H17.49C17.7815 13.25 18.02 13.0115 18.02 12.72V9.54H34.98V12.72C34.98 13.0115 35.2185 13.25 35.51 13.25H39.22C39.5115 13.25 39.75 13.0115 39.75 12.72V9.54H48.23V18.55H4.77Z" fill="#007BFF"/>
</svg>
