<svg width="68" height="61" viewBox="0 0 68 61" fill="none" xmlns="http://www.w3.org/2000/svg">
<path d="M34.6181 0.00016709C34.2424 0.00030564 33.8714 0.0841401 33.5322 0.24558C33.1929 0.407019 32.8939 0.642008 32.6568 0.933473L32.4607 1.07888C28.7838 -0.0401835 24.8724 -0.14286 21.1419 0.781745C17.4113 1.70635 14.0007 3.62374 11.2719 6.33041C8.85333 8.72551 7.05478 11.6739 6.03193 14.9204C5.00907 18.1669 4.79271 21.6138 5.40157 24.9627L5.35085 25.0134L2.11133 28.2293C1.44237 28.892 0.911361 29.6808 0.548972 30.5499C0.186583 31.4191 0 32.3515 0 33.2931C0 34.2348 0.186583 35.1672 0.548972 36.0363C0.911361 36.9055 1.44237 37.6942 2.11133 38.357C2.89813 39.1384 3.8543 39.7282 4.90573 40.0807C5.95716 40.4331 7.07562 40.5387 8.17444 40.3893C8.56629 41.8151 9.38766 43.0856 10.5269 44.0282C11.6661 44.9708 13.068 45.5398 14.5419 45.6577C14.6934 47.3917 15.4677 49.0121 16.7215 50.2194C17.9754 51.4266 19.624 52.139 21.3624 52.2247C21.4504 53.9391 22.1504 55.6231 23.4658 56.9284C26.0357 59.4849 30.0665 59.7047 32.8901 57.5946L34.1988 58.8931C35.5609 60.2428 37.4009 61 39.3184 61C41.236 61 43.076 60.2428 44.4381 58.8931C45.6893 57.6487 46.3892 56.0594 46.5346 54.4362C48.2221 54.2933 49.805 53.5598 51.0049 52.3648C52.2049 51.1698 52.9449 49.5899 53.0948 47.9031C54.5812 47.7665 55.9884 47.1711 57.1213 46.1993C58.2543 45.2275 59.057 43.9274 59.4183 42.4791C60.5007 42.6088 61.5983 42.4918 62.629 42.1369C63.6597 41.782 64.5968 41.1984 65.3698 40.4299C66.0383 39.7672 66.5689 38.9786 66.931 38.1098C67.293 37.241 67.4795 36.309 67.4795 35.3677C67.4795 34.4264 67.293 33.4945 66.931 32.6256C66.5689 31.7568 66.0383 30.9683 65.3698 30.3055L62.553 27.5023L63.1346 25.2501C64.393 20.3492 63.7591 15.154 61.3593 10.6994C59.6133 7.46537 57.0243 4.76439 53.8671 2.88305C50.7099 1.0017 47.1023 0.0101803 43.427 0.0136931H37.9929C37.7608 0.00355704 37.5285 -0.000952829 37.2963 0.00016709H34.6215H34.6181ZM44.5091 16.7219L56.2228 28.3612L56.2329 28.3747L56.2803 28.4186L61.7753 33.8798C61.9716 34.0747 62.1274 34.3065 62.2337 34.5619C62.34 34.8172 62.3947 35.0911 62.3947 35.3677C62.3947 35.6443 62.34 35.9182 62.2337 36.1736C62.1274 36.4289 61.9716 36.6607 61.7753 36.8556C61.3764 37.25 60.8382 37.4712 60.2772 37.4712C59.7163 37.4712 59.178 37.25 58.7792 36.8556L53.2842 31.3944C52.8055 30.9203 52.159 30.6543 51.4852 30.6543C50.8115 30.6543 50.1649 30.9203 49.6862 31.3944L49.6321 31.4519C49.3961 31.6858 49.2087 31.9642 49.0808 32.2709C48.9529 32.5777 48.8871 32.9067 48.8871 33.239C48.8871 33.5714 48.9529 33.9004 49.0808 34.2072C49.2087 34.5139 49.3961 34.7923 49.6321 35.0262L53.9132 39.2835C54.1095 39.4784 54.2653 39.7102 54.3716 39.9656C54.4779 40.2209 54.5327 40.4948 54.5327 40.7714C54.5327 41.048 54.4779 41.3219 54.3716 41.5773C54.2653 41.8326 54.1095 42.0644 53.9132 42.2593C53.5521 42.6187 53.0741 42.8368 52.566 42.874C52.0579 42.9112 51.5533 42.7651 51.1437 42.4622C50.6518 42.094 50.0437 41.9152 49.4308 41.9587C48.8179 42.0021 48.2411 42.2649 47.8061 42.6989C47.3729 43.132 47.1126 43.7083 47.074 44.3196C47.0354 44.931 47.2211 45.5354 47.5965 46.0196C47.9084 46.4245 48.0617 46.9295 48.0274 47.4395C47.9932 47.9495 47.7738 48.4295 47.4105 48.7891C47.043 49.1533 46.5555 49.3713 46.039 49.4024C45.5225 49.4335 45.0124 49.2756 44.6038 48.9581C44.1149 48.5768 43.5042 48.3861 42.8852 48.4216C42.2662 48.457 41.6813 48.7162 41.2392 49.1509C40.7985 49.5844 40.533 50.1649 40.493 50.7818C40.4531 51.3986 40.6417 52.0085 41.0227 52.4952C41.3422 52.9064 41.5 53.4203 41.4664 53.94C41.4328 54.4596 41.21 54.9489 40.8401 55.3154C40.435 55.716 39.8882 55.9407 39.3184 55.9407C38.7487 55.9407 38.2019 55.716 37.7967 55.3154L36.5388 54.0676L36.8939 53.7126C37.5623 53.0499 38.0929 52.2613 38.455 51.3925C38.8171 50.5237 39.0035 49.5917 39.0035 48.6504C39.0035 47.7091 38.8171 46.7772 38.455 45.9083C38.0929 45.0395 37.5623 44.2509 36.8939 43.5882C35.6292 42.3292 33.9422 41.5845 32.1597 41.4985C32.0632 39.7611 31.3408 38.1175 30.1261 36.8717C28.9113 35.6259 27.2865 34.8622 25.5522 34.7218C25.4137 33.0282 24.6736 31.44 23.4658 30.2447C22.679 29.4632 21.7228 28.8734 20.6714 28.521C19.6199 28.1686 18.5015 28.063 17.4027 28.2124C16.9734 26.6559 16.0344 25.2885 14.7358 24.3291C13.4373 23.3696 11.8544 22.8735 10.2406 22.9203C9.98377 20.5418 10.2666 18.136 11.0681 15.882C11.8696 13.628 13.1691 11.5837 14.8699 9.90132C16.4548 8.32685 18.3496 7.09899 20.4342 6.29566C22.5188 5.49233 24.7476 5.13107 26.9792 5.23479L21.917 9.06608C21.0944 9.68866 20.403 10.4678 19.8826 11.3586C19.3622 12.2494 19.0232 13.2343 18.8849 14.2567C18.7466 15.279 18.8118 16.3186 19.0769 17.3157C19.3419 18.3127 19.8015 19.2475 20.4291 20.0662C21.6968 21.7187 23.5665 22.8028 25.6304 23.0822C27.6942 23.3616 29.7849 22.8135 31.4462 21.5575L37.8339 16.7185H44.5091V16.7219ZM24.9773 13.1138L35.592 5.07248H37.2963C37.5072 5.07095 37.7181 5.07659 37.9286 5.08939H43.427C46.1858 5.08567 48.8941 5.82871 51.2648 7.23968C53.6355 8.65064 55.5801 10.6769 56.8923 13.1036C58.5662 16.2147 59.0903 19.7923 58.3937 23.2314L47.5356 12.424C47.2992 12.1792 47.0161 11.9845 46.703 11.8515C46.3898 11.7185 46.0532 11.6498 45.7129 11.6496H36.9852C36.4322 11.6493 35.8943 11.8298 35.4533 12.1636L28.3859 17.5166C27.7932 17.9638 27.0479 18.159 26.312 18.0596C25.5762 17.9601 24.9093 17.5742 24.4566 16.9857C24.2354 16.6975 24.0735 16.3685 23.9802 16.0175C23.8868 15.6665 23.8638 15.3005 23.9125 14.9406C23.9612 14.5807 24.0807 14.234 24.264 13.9204C24.4474 13.6069 24.6909 13.3328 24.9807 13.1138H24.9773ZM13.6356 40.014C13.4393 39.8191 13.2835 39.5873 13.1772 39.3319C13.0709 39.0766 13.0162 38.8027 13.0162 38.5261C13.0162 38.2495 13.0709 37.9756 13.1772 37.7202C13.2835 37.4649 13.4393 37.2331 13.6356 37.0382L16.8718 33.819C17.2706 33.4245 17.8089 33.2033 18.3698 33.2033C18.9307 33.2033 19.469 33.4245 19.8678 33.819C20.2597 34.2079 20.4823 34.7357 20.4873 35.2878C20.4924 35.8398 20.2795 36.3716 19.8949 36.7677L19.8678 36.7947L16.6317 40.0106L16.6012 40.041C16.2003 40.4227 15.6665 40.6333 15.113 40.6283C14.5594 40.6232 14.0296 40.4029 13.6356 40.014ZM11.9753 28.6215C12.3586 29.0173 12.5702 29.5485 12.5638 30.0995C12.5575 30.6504 12.3338 31.1766 11.9415 31.5635L8.70534 34.7827C8.30652 35.1771 7.76823 35.3983 7.20732 35.3983C6.6464 35.3983 6.10812 35.1771 5.70929 34.7827C5.51299 34.5878 5.35719 34.356 5.25087 34.1007C5.14455 33.8453 5.08982 33.5714 5.08982 33.2948C5.08982 33.0182 5.14455 32.7443 5.25087 32.489C5.35719 32.2336 5.51299 32.0018 5.70929 31.807L8.94881 28.5911C9.34763 28.1967 9.88592 27.9755 10.4468 27.9755C11.0078 27.9755 11.546 28.1967 11.9449 28.5911L11.9753 28.6215ZM30.0598 53.3541C29.661 53.7486 29.1227 53.9698 28.5618 53.9698C28.0008 53.9698 27.4626 53.7486 27.0637 53.3541C26.8674 53.1593 26.7116 52.9275 26.6053 52.6721C26.499 52.4167 26.4443 52.1429 26.4443 51.8663C26.4443 51.5896 26.499 51.3158 26.6053 51.0604C26.7116 50.8051 26.8674 50.5733 27.0637 50.3784L30.2999 47.1625C30.6987 46.7681 31.237 46.5469 31.7979 46.5469C32.3588 46.5469 32.8971 46.7681 33.2959 47.1625C33.4922 47.3574 33.648 47.5892 33.7543 47.8446C33.8607 48.0999 33.9154 48.3738 33.9154 48.6504C33.9154 48.927 33.8607 49.2009 33.7543 49.4563C33.648 49.7116 33.4922 49.9434 33.2959 50.1383L30.0598 53.3541ZM23.2257 46.564C22.8273 46.9592 22.2888 47.181 21.7277 47.181C21.1665 47.181 20.628 46.9592 20.2296 46.564C19.8373 46.1755 19.6141 45.648 19.6084 45.0959C19.6027 44.5438 19.815 44.0118 20.1992 43.6153L20.2296 43.5882L23.4658 40.3724L23.4928 40.342C23.8944 39.9597 24.4291 39.7491 24.9835 39.7548C25.5379 39.7604 26.0682 39.982 26.4618 40.3724C26.6581 40.5673 26.8139 40.7991 26.9202 41.0544C27.0266 41.3098 27.0813 41.5837 27.0813 41.8603C27.0813 42.1369 27.0266 42.4108 26.9202 42.6661C26.8139 42.9215 26.6581 43.1533 26.4618 43.3482L23.2257 46.564Z" fill="#007BFF"/>
</svg>
