<svg width="74" height="62" viewBox="0 0 74 62" fill="none" xmlns="http://www.w3.org/2000/svg">
<path d="M18.5 0C10.8688 0 4.625 6.2 4.625 13.7778C4.625 18.3704 6.9375 22.5037 10.4062 24.8C4.1625 28.0148 0 34.2148 0 41.3333H4.625C4.625 33.7556 10.8688 27.5556 18.5 27.5556C26.1313 27.5556 32.375 33.7556 32.375 41.3333H37C37 33.9852 43.0125 27.7852 50.4125 27.5556H50.875C56.6562 27.5556 61.5125 24.1111 63.5938 19.2889C63.5938 19.2889 63.5938 19.0593 63.825 19.0593C64.0563 18.8296 64.0563 18.3704 64.0563 18.1407C64.0563 17.9111 64.0563 17.9111 64.2875 17.6815C64.2875 17.4519 64.5187 16.9926 64.5187 16.763C64.5187 16.5333 64.5188 16.3037 64.75 16.0741C64.75 15.8444 64.75 15.6148 64.9813 15.3852V14.0074C64.9813 6.42963 58.7375 0.229629 51.1063 0.229629C43.475 0.229629 37.2313 6.42963 37.2313 14.0074C37.2313 18.6 39.5438 22.7333 43.0125 25.0296C39.5438 26.637 36.7687 29.3926 34.9188 32.6074C33.0688 29.3926 30.2938 26.637 26.825 25.0296C30.0625 22.5037 32.375 18.3704 32.375 13.7778C32.375 6.2 26.1313 0 18.5 0ZM18.5 4.59259C23.5875 4.59259 27.75 8.72593 27.75 13.7778C27.75 18.8296 23.5875 22.963 18.5 22.963C13.4125 22.963 9.25 18.8296 9.25 13.7778C9.25 8.72593 13.4125 4.59259 18.5 4.59259ZM50.875 4.59259C55.9625 4.59259 60.125 8.72593 60.125 13.7778C60.125 18.8296 55.9625 22.963 50.875 22.963C45.7875 22.963 41.625 18.8296 41.625 13.7778C41.625 8.72593 45.7875 4.59259 50.875 4.59259ZM55.7313 29.8519V34.6741C54.3438 34.9037 52.9562 35.5926 51.8 36.2815L48.3312 32.837L45.0938 36.0519L48.5625 39.4963C47.6375 40.6444 47.175 42.0222 46.9437 43.6296H41.625V48.2222H46.4813C46.7125 49.6 47.4062 50.9778 48.1 52.3556L44.6312 55.8L47.8688 59.0148L51.3375 55.5704C52.4938 56.2593 53.8812 56.9482 55.2687 57.1778V62H59.8937V57.1778C61.2812 56.9482 62.6688 56.2593 63.825 55.5704L67.2938 59.0148L70.5312 55.8L67.0625 52.3556C67.9875 51.2074 68.45 49.8296 68.6813 48.2222H74V43.6296H69.1437C68.9125 42.2519 68.2188 40.8741 67.525 39.4963L70.9938 36.0519L67.7562 32.837L64.2875 36.2815C63.1312 35.5926 61.7438 34.9037 60.3563 34.6741V29.8519H55.7313ZM57.8125 39.037C61.7438 39.037 64.75 42.0222 64.75 45.9259C64.75 49.8296 61.7438 52.8148 57.8125 52.8148C53.8812 52.8148 50.875 49.8296 50.875 45.9259C50.875 42.0222 53.8812 39.037 57.8125 39.037ZM57.8125 43.6296C57.5185 43.6332 57.2288 43.7006 56.9638 43.8271C56.6886 43.957 56.4382 44.1334 56.2238 44.3484C56.0073 44.5613 55.8297 44.8099 55.6989 45.0832C55.5715 45.3463 55.5036 45.634 55.5 45.9259C55.5 46.213 55.5717 46.5 55.6989 46.7687C55.8261 47.0373 56.0064 47.2899 56.2238 47.5035C56.4389 47.7193 56.6932 47.8984 56.9638 48.0247C57.2288 48.1512 57.5185 48.2186 57.8125 48.2222C58.9688 48.2222 60.125 47.0741 60.125 45.9259C60.125 44.7778 58.9688 43.6296 57.8125 43.6296Z" fill="#007BFF"/>
</svg>
