<svg width="59" height="59" viewBox="0 0 59 59" fill="none" xmlns="http://www.w3.org/2000/svg">
<path d="M56.1356 0.823047L55.9587 0.75C41.2492 0.766353 28.7689 8.83347 19.8696 17.045H3.03688L2.8601 17.1182L0.823223 19.1551L0.75 19.3319V31.5532L0.769115 31.649L1.36796 33.0911L1.42207 33.172L5.43307 37.1831L5.46323 37.2458L21.7582 53.5408L21.821 53.571L25.8646 57.6146L25.9458 57.6688L27.3839 58.2636L27.4794 58.2826H39.7007L39.8774 58.2093L41.9143 56.1725L41.9875 55.9957V39.1713C50.2075 30.2838 58.2663 17.8072 58.25 3.0366L58.1766 2.85992L56.1356 0.823047ZM13.2213 58.2826L13.4713 58.0326V53.9588L13.2213 53.7088H5.32375V45.8113L5.07375 45.5613H1L0.75 45.8113V58.0326L1 58.2826H13.2213ZM40.9126 26.9413L40.9189 26.9379C41.8557 25.5344 42.1966 23.8162 41.8666 22.1613C41.5366 20.5065 40.5627 19.0505 39.1591 18.1137C37.7556 17.1769 36.0374 16.836 34.3826 17.166C32.7277 17.496 31.2718 18.4699 30.335 19.8734C29.3981 21.2764 29.057 22.994 29.3867 24.6485C29.7163 26.303 30.6896 27.7588 32.0926 28.6956C33.4956 29.6324 35.2132 29.9735 36.8677 29.6439C38.5209 29.3145 39.9757 28.3424 40.9126 26.9413ZM5.32375 21.6188H15.2597C12.1845 24.8862 9.33887 28.3625 6.74322 32.0227L5.32375 30.6101V21.6188ZM28.3982 53.7088L26.9696 52.2699C30.6375 49.6884 34.1206 46.854 37.3934 43.7874V53.7088H28.3982ZM24.9111 18.7662C32.5139 12.1845 42.3924 6.17496 53.6021 5.40669C52.8596 16.6421 46.8471 26.5236 40.2573 34.1203C33.7415 41.6318 26.6824 46.8851 23.6672 48.9743L10.0259 35.341C12.1252 32.3208 17.3934 25.2743 24.9111 18.7662Z" fill="#007BFF" stroke="#007BFF" stroke-width="0.5" stroke-linejoin="bevel"/>
</svg>
