<svg width="44" height="41" viewBox="0 0 44 41" fill="none" xmlns="http://www.w3.org/2000/svg">
<path d="M41.25 0H2.75C1.1 0 0 1.17143 0 2.92857V38.0714C0 39.8286 1.1 41 2.75 41H41.25C42.9 41 44 39.8286 44 38.0714V2.92857C44 1.17143 42.9 0 41.25 0ZM16.5 8.78571C18.15 8.78571 19.25 9.95714 19.25 11.7143C19.25 13.4714 18.15 14.6429 16.5 14.6429C14.85 14.6429 13.75 13.4714 13.75 11.7143C13.75 9.95714 14.85 8.78571 16.5 8.78571ZM5.5 32.2143L11 20.5L19.25 26.3571L27.5 14.6429L38.5 32.2143H5.5Z" fill="#8EBDF4"/>
</svg>
